<?xml version="1.0" encoding="utf-8"?>
<!-- Svg Vector Icons : http://www.onlinewebfonts.com/icon -->
<!DOCTYPE svg PUBLIC "-//W3C//DTD SVG 1.1//EN" "http://www.w3.org/Graphics/SVG/1.1/DTD/svg11.dtd">
<svg version="1.1" xmlns="http://www.w3.org/2000/svg" xmlns:xlink="http://www.w3.org/1999/xlink" x="0px" y="0px" viewBox="0 0 1000 1000" enable-background="new 0 0 1000 1000" xml:space="preserve">
<metadata> Svg Vector Icons : http://www.onlinewebfonts.com/icon </metadata>
<g><g transform="translate(0.000000,511.000000) scale(0.100000,-0.100000)"><path d="M4603.4,5010.3C2477.3,4816.4,741.1,3338.1,232.2,1289.1C126.4,863.9,100,619.3,100,110.4c0-508.9,26.4-753.5,132.2-1178.7C626.6-2659,1756.8-3917.1,3323.3-4507.5c207.1-79.3,676.4-198.3,960.6-244.6c372.3-59.5,1117-55.1,1493.8,13.2c572.8,101.3,960.6,229.1,1458.6,482.5C8503-3613,9424-2451.9,9767.7-1068.3c103.5,416.4,132.2,672,132.2,1167.7c2.2,526.6-30.9,790.9-152,1255.8c-449.5,1722.9-1791.2,3060.3-3525.1,3514.1c-345.9,90.3-689.6,134.4-1112.6,141C4885.4,5014.7,4658.4,5014.7,4603.4,5010.3z M5204.8,4490.4c403.2-418.6,731.5-916.5,995.9-1511.4c110.2-251.2,116.7-279.8,61.7-301.8c-121.2-44.1-680.8-103.6-1108.2-114.6c-480.3-11-731.5,4.4-1172.1,72.7c-295.2,44.1-299.6,48.5-262.2,156.4c59.5,176.3,359.1,755.7,508.9,984.8c240.1,365.7,694,894.5,768.9,894.5C5015.4,4671,5107.9,4589.5,5204.8,4490.4z M4394.1,4556.5c-403.2-471.5-645.5-879.1-1015.7-1709.7c-28.6-68.3-37.5-72.7-103.5-59.5c-119,26.4-566.2,207.1-766.7,312.9c-249,130-557.4,341.5-566.2,385.6c-4.4,24.2,55.1,85.9,165.2,174.1c553,442.8,1187.5,753.5,1846.3,907.7c288.6,68.3,328.3,74.9,436.2,79.3l85.9,2.2L4394.1,4556.5z M6070.7,4563.1c517.8-127.8,991.4-332.7,1418.9-612.5c288.6-191.7,572.8-416.4,572.8-456.1c0-50.7-372.3-297.4-649.9-431.8c-306.3-149.8-731.5-301.8-760.1-273.2c-11,11-63.9,130-121.2,262.2c-231.3,546.4-539.8,1050.9-914.3,1489.4l-99.2,114.6l145.4-13.2C5742.4,4633.6,5925.3,4598.3,6070.7,4563.1z M1875.8,3100.1c306.2-229.1,672-414.2,1121.4-568.4c114.6-39.7,213.7-77.1,222.5-83.7c8.8-8.8-13.2-123.4-48.5-255.6c-132.2-486.9-224.7-1048.7-253.4-1531.2c-6.6-127.8-17.6-264.4-24.2-301.8l-11-72.7H1648.9h-1236l15.4,160.8c74.9,819.6,321.7,1531.2,755.7,2187.8c213.7,319.5,458.3,612.5,502.3,594.9C1701.7,3223.5,1787.7,3164,1875.8,3100.1z M8494.2,3069.3c431.8-506.7,779.9-1183.1,945.2-1846.3c72.7-286.4,156.4-874.7,132.2-914.3c-8.8-13.2-484.7-22-1233.8-22H7117.2l-11,72.7c-6.6,37.5-17.6,174.1-24.2,301.8c-26.5,478.1-127.8,1079.6-255.6,1537.8c-37.5,127.8-57.3,238-48.5,246.8s110.2,46.3,224.8,85.9c456,156.4,905.5,390,1169.9,605.9c66.1,52.9,132.2,99.1,147.6,99.1C8335.6,3238.9,8412.7,3161.8,8494.2,3069.3z M3935.8,2302.6c579.4-103.6,1537.8-101.4,2143.7,4.4c114.6,19.8,242.4,37.5,284.2,37.5c72.7,2.2,74.9,2.2,127.8-174.1c127.8-431.8,238-1092.8,262.2-1595.1l15.4-284.2l-1044.3-13.2c-575-6.6-1178.7-11-1341.7-6.6c-163,4.4-489.1,11-720.5,13.2l-425.2,2.2v160.8c0,211.5,55.1,713.9,112.4,1026.7c46.3,257.8,182.9,824,209.3,865.9C3574.5,2364.3,3629.5,2357.7,3935.8,2302.6z M6229.3-59.3l533.2-13.2v-134.4c0-431.8-130-1269-273.2-1753.7c-57.3-196.1-37.4-187.3-345.9-134.4c-669.8,114.6-1540,119-2198.8,13.2c-198.3-30.9-367.9-50.7-379-39.7c-26.4,26.4-163,572.9-215.9,868.1c-57.3,312.9-112.4,815.2-112.4,1026.7v160.8l359.1,6.6C4387.5-46.1,5727-43.8,6229.3-59.3z M2893.7-136.4c6.6-39.7,17.6-176.3,24.2-304c28.6-480.3,121.2-1044.3,253.4-1531.2c48.5-178.5,57.3-244.6,39.7-255.6c-15.4-8.8-132.2-52.9-260-96.9c-337.1-116.8-815.2-361.3-1057.5-539.8c-114.6-83.7-215.9-154.2-224.7-154.2c-33,0-312.8,348.1-469.3,583.8C890.9-1967.2,690.5-1520,560.5-1002.2C501-770.9,417.3-237.7,417.3-92.3c0,19.8,262.2,26.4,1233.8,26.4h1231.6L2893.7-136.4z M9571.6-87.9c24.2-39.7-59.5-627.9-130-914.3c-171.9-676.4-555.2-1412.3-991.4-1894.8l-119-132.2l-94.7,72.7c-363.5,268.8-768.9,484.7-1187.5,632.3c-127.8,44.1-246.8,88.1-260,96.9c-22,13.2-13.2,70.5,37.5,255.6C6952-1524.4,7053.3-918.5,7082-440.4c6.6,127.8,17.6,264.4,24.2,304l11,70.5h1220.6C9086.9-65.9,9562.8-74.7,9571.6-87.9z M5870.2-2388.1c246.7-37.5,405.4-70.5,423-85.9c41.9-41.9-304-751.3-539.8-1106c-198.3-299.6-493.5-656.6-647.8-788.8l-105.7-88.1l-103.6,88.1c-295.2,249-727.1,854.8-982.6,1377c-204.9,416.4-235.7,497.9-193.9,522.1c33.1,22,405.4,83.8,663.2,112.4C4638.6-2328.6,5614.6-2348.4,5870.2-2388.1z M3481.9-2857.3c229.1-531,462.7-918.7,799.8-1335.1c218.1-268.8,220.3-264.4-103.5-202.7c-614.7,116.8-1163.3,337.1-1667.8,667.6c-293,191.7-572.8,414.2-572.8,456.1c0,35.3,202.7,185.1,429.6,317.2c257.8,152,879.1,405.4,956.2,392.2C3340.9-2564.3,3411.4-2698.7,3481.9-2857.3z M6921.1-2634.8c434.1-149.8,1141.3-542,1141.3-634.5c0-70.5-570.6-480.3-947.4-680.8C6709.6-4166,6044.3-4382,5667.5-4419.4l-149.8-15.4l99.2,114.6c370.1,436.2,683,945.2,914.3,1489.4c116.7,273.2,116.7,275.4,143.2,275.4C6683.2-2555.5,6795.6-2590.8,6921.1-2634.8z"/></g></g>
</svg>